<mxfile host="Electron" modified="2024-04-02T17:09:19.609Z" agent="Mozilla/5.0 (Windows NT 10.0; Win64; x64) AppleWebKit/537.36 (KHTML, like Gecko) draw.io/24.1.0 Chrome/120.0.6099.109 Electron/28.1.0 Safari/537.36" etag="ayoUFMjus0ca94z3fnqt" scale="1" border="0" version="24.1.0" type="device">
  <diagram name="Page-1" id="EmwzgHjXN4L9OG_YRLbm">
    <mxGraphModel dx="1405" dy="981" grid="1" gridSize="10" guides="1" tooltips="1" connect="1" arrows="1" fold="1" page="1" pageScale="1" pageWidth="1100" pageHeight="1700" math="0" shadow="0">
      <root>
        <mxCell id="0" />
        <mxCell id="1" parent="0" />
        <mxCell id="bC7OHCeX101TMUWNberd-2" value="ace-demo-pipeline" style="dashed=0;outlineConnect=0;html=1;align=center;labelPosition=center;verticalLabelPosition=bottom;verticalAlign=top;shape=mxgraph.weblogos.github;fontSize=18;fontStyle=0" parent="1" vertex="1">
          <mxGeometry x="37" y="336" width="75" height="75" as="geometry" />
        </mxCell>
        <mxCell id="bC7OHCeX101TMUWNberd-3" value="ACEaaS" style="ellipse;shape=cloud;whiteSpace=wrap;html=1;fontSize=21;fontStyle=0" parent="1" vertex="1">
          <mxGeometry x="922" y="253" width="170" height="110" as="geometry" />
        </mxCell>
        <mxCell id="kKCmZU7g9CsREEnNZsZf-6" value="" style="shape=image;html=1;verticalLabelPosition=bottom;verticalAlign=top;imageAspect=1;aspect=fixed;image=data:image/png,iVBORw0KGgoAAAANSUhEUgAAAF0AAACACAYAAABp0WUyAAAABHNCSVQICAgIfAhkiAAAAAlwSFlzAAAFrgAABa4BrQQaEQAAABl0RVh0U29mdHdhcmUAd3d3Lmlua3NjYXBlLm9yZ5vuPBoAACAASURBVHic1Z13nFTl9f/f996507fvsmxhmYEBRFF6ExWNQsTYYkFjL4kak1hjicYk9qiJ0WjytcUSxYaKoqBBsVBEBAUBaQ47s7vAwvYyfebe+/vjzszO7M4Wdhf193m99rUzd+5T5jPnnuc855zneQRN0/j/BS6H0wxMBWYBkwELIAMGo1G2WS3mHFk2WGNRJSrLhp2Kqq5tbGpZCWx0ez1NP2DX0yD8mEl3OZxZwAnoJM8CJgHG/tQlSdIeRVHWA2uB/7q9nj2D1tEDxI+SdJfDORb4DXARkNXb/aIooqrqgTShAO8C/3R7PZ/0q5MDwI+GdJfDKQGnAL8Fju/p3qKCPKZNHse0SeOYPvlwykuLCUeiBIJBAoEQgWCI1jYfGzZtY+1Xm9mwaTvhSLS76hYB17m9nurB/Ubd4wcn3eVwGoBfA78HKnq6d9b0Cdx49UWMdg0/oDYi0SgbN+/gi/WbWPz+Z+yra+h8SwC4xu31/OeAKu4nflDSXQ7nscBjwDjQ1cQRRxzB3LlzePXV16iu1oWveEgBt1xzKXOPmzngNhVFYdkna3jh1XfZss3d+eM/ur2eewfcSC/4QUh3OZzlwN+B+QDFxcWceuopzJk7B7PZzGuvvc6rr7wKaFx4zilcfdl8rBZzN7VpaKqCpqpomgppr2OomoYAIIoIgoggSMnXG7dV8sRzb7Bm3abUCh8Frnd7PQeNmO+VdJfDaQJuFAThT5qmmXJzc7nk0ks48cSfIggClZUe7rzzLvbV1jLpiLHccdMVjBrRVeNoaGixCEokhKZEGMh3ECQDL771ie+xZ16zxWKKEL+8ALjU7fV0OxAMBN8b6S6Hc54oiv9WVdVhNps56+yzOPvsszCZTFTX1PDRh8t5d/Fi0DT++Ptfcdq8Y7vUocbCKJEgaiwKDG6/N22tDP76tkcNoXBEjl96HzjD7fWEBrUhvifSXQ7nr4AnAWHYsGH85c4/U15eTktLK+9/8D927apkzepV2G0W7elH/iyMHe1MK6+pMWKh9jjZBw9bdni46tZHY8FQ2BC/9JTb67lysNs56KS7HM6rgccBYebMGdx8y81YrVYqKz0s+3A5oVCINatXYzZJ6vOP3yWWlxYny2poKOEASjjAYEt2d1j/zU5+fdsjmqpqCVVzntvreWUw2ziopLsczivQJZzzzz+PCy+6EE3T+OKLL1n/1ddomobHU0lT3b7Awucesubn5XQU1lQigVY05eBKdya8+OaHPPLMW4m37cAUt9ezc7DqFweros5wOZw2QRD+CjB79mwuuvgiAN7/4H+sW/8Vmqbh8/lw79wZfeyBW38UhAuiiGzJ5vKLz001T7OA1+N+n0HBQSMd+JWmaXmFhYVcc+3vAFi7dh1btmwlEg7T0tLCurVftF96/qnSoWNGJAtpmkrE39wj4YIgdPtZfyFKMkZbPqJsRhAl7rn9t1SUDU10YjzwyGC1dVDUi8vhlCVJqlJVteTa664FTWPlqlVs3rSZSCSSvG/okIKm91//d74sx8ctDSKBzIQLCIhGC5LRgiBKaJpCLOhDjYUHpc+yNZdwTGPhO8tYuWYDggDRaIx1G75Nve0wt9ezdaBtGXq/pV+4SVGUEoBH/pEuIIIgUFFRQVVVFePHjbEnCQdiYV9mwgUJ2ZaLIErs3FXN0mUrqKndT35ODhefcRxFBb36xHqGIIIoccPt97Pyiw093fkr4PqBNTbIku5yOK3AE8CFqdeHDi1m8pQpTJw4gQkTJpCVlcUZPz9Tzc22if974/8AUGMRooGWrh0UDci2HILBKA//+78sXPwhitLhUTSbjCx65k6GFOb2u9+CJFNT5+O0C67jsNHDybJb8e7ez/765s4Tr0agzO31DOjxGjRJdzmcAvAhcGSycoOByy6/jDPO+DmCINDc3ILXW83uPXuwWi2xPbV1xqbmVvLzsomF2jPWK9ty8PlDXHnDPWz6VjcgDJJEfl42kWiUcCRKW3tgQKRrShRZC/HcwzdxxNiO8aWyupYH//0a677ZkbhUAJwMvNnvxhhc9fILUggvKSnhttv+wOgxo6n0eFixYjWtra3Jm+32LGN9fQOV3t3k2keiqUqXCkWDCU0TkoTbrGbOPOlozjvtJxQNgORMKC7MobgwJ+3aiIoSnvjrdZ1NyBP4MZDucjiNwD2J99OnT+eWW29GURQWv7sEj8fbpYzZrFtgOTlZ8clPV0iyibeXfMymb3eSbbfy9IM34nKWDkaXDwgXnjkHt3cv7330BcBPBlrfYJmMxwNOAKvVyo2/vxGA1994KyPhAMFgEID8bCuqGstcqyDy3MvvYDLK/OMvV/8ghCdw45VnJ0zV0S6Hs2wgdQ0W6TMSL8459xysViuL312C3+fvtkAgGESWDdjN3XehpbkFT/Vezjv9eCYcNnKQuto/ZNutjB5Rnng7eSB1DRbp0xMvZh9zDF999TV1dfU9FggHgwwvL4HupBwwiAqjRg7jkvlzB6mbA8OUI0YnXg7okRss0icBWCwWhhQPYcu3vc8fgsEAo3p5Sk2yxCuP347dZulTJ+obupqcA0Frm4/K6trk+8kdpJcMpN7BIj0boKKigj179+L3d69WAKLRKJFojJHDh/ZasdBH76JokHntvRWEQoMzQxUEgZy8Ap56eUny2vhDk+Zk7x3vAQMm3eVwlgKmxPue9HjynviPMnL4gAQGAMlgwphVgGzNw2rP4p1la3ots+KLTXy44qtuPxdECdmWj8mWw7c7qtju1mO12Vm2xGD6w0m6y+GcAHyZeB8Oh4l0n+qQRCBOussxICMAQRQxWLP1uCfwk6On8fzCZfgDPQd7ZNnAog9Wdfu5ZLYjiHqdI4aX8n//fRcAURCwmE0AwwbS736T7nI4TwVWAUnmwuEw4XDvj7eqqZgMBkqG5Pe3eQAEyQh0eBzHjHJSVlLEY8+93WM5Z8VQvty4gw1bumQDAAKi1JFEdvLcWaxat4Vvtu4CIEsfXw53OZzj+9vvfpEeD04sAmwAUvx6KBwiEo10Wy4B2SBTaDUP2EWrRkNoSrr1c82vzuPNpStYu2F7t+WKC/PIslm4958LiMY6z4Q1lLAPJRwg4m9i9tRDycm28++4tNvtFtC/8qp4CskB44BJdzmcxwP/SpQ9yWZhpFGP5YZDYQySgdravXyzYQNrPl/N1m+/Ze+ePWkuXYPBQFNwcOK9EX8TEX8TUX8LEV8zR4wq5sjJh3HDXU+wY1dNxjKCIHDGSUfhqdnHCwuXpX0WDkf5Zss2Fr//MY8+vZDf3fE4oVCY9d/sYNt3VditSUvKDrzpcjhHdK6/NxyQGyDewOuJchdm27k2N5ubGprYGYkSDAa56847UZQO6Wlu0pNlLRYLU6ZNIysrG1mWCUZjNDS1Upifk6mpPiEQDPPm0pUMLy/GUV5MXm4W7b4AJpNMKBTm3Y++YMzIzOr3F6cfz8uLPubZV9/np7OnMKy0CIDK6r1cfO0DXe4/+2fHcIirovPTmQ+843I4Z7q9Hl9f+91n0uMZtIvjDXG0xczvcrNpU1W+CetSrGkaiqJgNpsYXl5CSXEhzS1tfPPtToLBIGtWr2bylKnk5edjkCS8NfsHRPrm7R4eeaZ735NrePdzmMK8bE6beyQLl6zg/sdf5t/3XQvAmJEVnDnvaNZu3E5jSxvTxh/CKXNmcOzM8QiCQCymIAoCpZLIbl01jQNedDmcZ/Q1QalPpMfdti8ChwE4ZAP3FOQhAs+3+WhK8W/PO+Eobr32UgryO7yAm7d+x6+uuwufP8DOHduZOeso8vPz2emuYsr40fQXE8e5uPjsubz01kdpPnaDJHHrb37B6SfO6rH8tZefwfpNO1m7YTtPLXiPK84/GVEUuO2a87otE1MUbJLEbXl2bmpsxa9qAKcDdwJ/6ku/+xTEcDmcdwN/BMgSRV4YWkiFQf+9zt9Xz464mXj15edw9WXzAdi3vxFZNlAQl+TlK77k2j88gCAIHD9nLpW73IzIt/LAXVf3pZ89orXdz+7aBhqaWsjJsjOsrIiC3Ow+la2sruXCax8gFApz902XctJPpvV4/zm/vof2/Q08mWvn63CUu5vaEtM3DZjv9nre6K3NXgdSl8N5NnHCReDegrwk4QFV47s44eMPG81Vl5xFTFG47tb7OeGMK5h9ymX88po7qKmu5rhZkynIz0HTNHbu2M7+2lqqdu/rrfk+ISfLxmGjhzN7xngmHDayz4SD7jO/PS7Zd/3jv92YkR1QFAVb/PtPMslclGVNfCQAz/fFlOyRdJfD6QKeT7z/TW42R1qSk0/WhoMkHuqLzj0FURRZ+r8VtLa1k5djB+CLr7Zy5e/vp62xluOPngJAdVUV/kCAmqZW1B9BfvxJx03jrJOOIRpTuPHuJ6nZ272zLqYoWFIMhZ/bLRzdwYkNeNvlcPboLOpN0u8GrABzrRYuzrYnP/CpCs1xG1cQBKZNHgfA5PGjeeKv15GTZWPsqOHMP+VY9uxrYMGi5ZwwazxZNgvFRXkcO3M8Lz9+G+JBSKfoD2686mwOHV1Ba5uPa//0OC2tmd0ZgUAIi5K+6uN3OTZGdATYHcA1PbXVrU6PT/G/BoQcUeSd0iHYRf03imgq9bEomyJR7mhsw2I2sW75ywDEgu1EQn5mnX4Ni5+7hyGFudz72AJ2unfzwqO39JGCHwb7G5q54Lf309TazpiRw3jygesTM1AA2v1Bjj3rBmZbTFyfa08rWxVTuK6+JaHfm4ERbq8no9uzJ0m/j/gc+9Jse5JwBY1GJYoGWONSGgyFaWzS61fVKHv3N5KXm5UMFv/u0p9jNMldW/ieIUo996G4MI+H7rgSSRLZsauGfz77VtrnlVW6mzdH7Pp0DjdIHNOhZvKAm7rtR6aLLofzGGAeQLEkMT/LBujDc1MsihL/OfOljuI1e/brLxQFo9FAaj5Ltt3Kbb/r3gz7PiDJFmRbHrK153nBhMNGMm6MnjWcm5WeT+OJ+9ZTVEkazsuyYuj4Pa51OZzFme7rTtLvT7y4MicLY1yi21WFcIo6yhNFyg265+XzLzfqKyLQKC7MY2hRujPLOWxALugBQ5TjTqw+jNvtfj1+O6KTv39X1V4AXN2QXiyJ/NSaTHm0Ebf6uvSl8wWXw3kK8VQKp2zgZLtuEilotGdIk5gYVxsvv7GUcLjDv3L1Rad2952+d2zaVok/FCUW8hENtnZ7n6KovP3Bairj5E46fFTa55XePZgFgTKDlKk4APPtFswdxsEVLofT0fmeNNJdDqcIJBc6XZ2TnbyhVVEyLjOZZNIlqKXNx5tLPtFT1OAHDySn4p1la1i5ci1KJHOqRygc4bXFn3L6L//M3Y++xBFjR/DMQzdSXJiXdp+7cg8jZAM92Vs5oshptqS0G9FnqmnoLOlnAIcDjDMaOS7+qIRVlUAGKQeYYJIZGX/cnnj2dar2NvbQpR8GwWCIV99JT8cD2O6u5rHnFnHSRbfz4P+9hkk28Lc7ruS5h29i4jhX2r27vHtpaPPhkruX8gROt1vI7hhsL3A5nGkS2Fk5nZV4cVVuxyDS0kPEXgDOz7JyV1Mbza3tXPH7B3n6weupKBvS5d7lqzZgtdk5ctLoAS3OOlD87IQZXHPH45x++Z8oLykiEo2yv76Z2jrdA1pUmMsfr7mAU+fOREoxDtp8AT5c+RU//+lRfLjya6B7fZ4KiyDwc5uFF9oDoAv2mcCDic+TLbgcTpm4xZIjikzTw1KEVJVoLwRNMskcZdHVTENTC1fe+ggfrfw6OdvcssPDlbc+ws33PsXKdd8iGW29dnwwMWvKYUybcAiqqrGvvok2X5CKsiH89tLTefHRP7D0hfv4+bxZScL9gRBPvrSEky++ndwsO6IosHylHlMd2QfSAY5KmbkDp6W+Sa3hWOJR/aMs5uSv0d6DlKfi+twsVK2dz0MR6hqaueW+p7GYTeRk29gXlyiL2cTF556KaJBhcIL2aVi1bgs7K2v46TFTKSspTPvs/+6/ttfynpp9vLV0Je9+uEafCM0cz/FHTaSyupbKmn3YRYHSHgbRVBRJIg5ZwhtVAGa4HM4hbq+nDtJJT/4as+MLZSOammYi9gQJuDEvC0OLjxVBndFgKEwwJSXiz7dcRUX50IzJogcKUTZhMGfHFwe0oylRjpo6jqXL1/Kv5+8gL8eOY9hQnBVDyc/JQpZljLIBo1HGaDBgNBo4dFQFFouZvz+5kG93eqlLyZs5xFXBvTdfCsDyVbpqmWE29jiIdsY0kxFvNAi6RjkZeBbSST8FQBYEZsRVi+/AdpZAAm7ItTPfbuGjQJiPg2Ha4nWUFBdy8txjAD2KLwjCwBbdCnod+gLeKDFFwSBJ/On6CynIz+GtpSvZsMXdo9fwsnPmccyMw/nk841p1ycdPor7br0cc5yHZcv1hIdjzKYudfSEqWYjr/uCibenESddhKSfpQJgismIVdRTfIL9lMhyg8Ql2VaeK87jiHj8tK6hOSWMJyD0MiXvDZqm/5hKJMTbH6xm3vl/oM0XwGwycuMVZ7Hkhfu49JwTe8w4aPenm5BF+Tnc/rvzeeqB6ymKxwE+Xr2Byr115Ikihx+gK8MlG8gTk8PmnIT3MSHpSdVyTNxMDKnKgFduSsAUs5FNkSiKouCtqWWkQ0/CFCQZYpkzB3bsquk2tpmApsT0J0VTOWXOTFas3czfnnydO2+4GEEQyM2x8dtLTuO3l5xGS6ufbW49aailPUAsGiUaVThk5DBKigt46I9XcNgYRxe7PBZTeOzZRQDMshyYagHdsptqNrJMz8OxAHOAxQnSk9PHY+L6PDRIJt34FOn4ZOW6JOmiQUbpZjBd+smXiKLYY66jpipEfPqcQJJE7rvlUs777X3c9tf/cMvVvyA3p8NCys2xMXPyocycfGjGun4ya2LG628sXUF13Ld+rOXAVEsCU01ygnTQhXux6HI484gngI42yhRL+ugc1A5Mn3eH4QaJ3Pgj9sHy1cnrunrJLDtTDh/Nrfc/kzYIZ0RKH81mE/fcfDnLV29g7vk3c80dj7P04y8JBvtnJvn8QZ5esBSAWWZjn+zzTBhvkpO+K+KbBwkjhzsOBzYBnGyz8peCXKKaxv5uHv3+4OEUi2bJq48zfJieChgNtKB2084F19yPy1HGX2646IDaWr7qa/744HNEorqpK0kiedl2srNsZGdZycmyI8sS0aiCoih6ePGXZ3Z5qv757CJeWLgMoyDwr6JciqR+5WUBcF1DK169PzHAKOXn5k4gvhpulsXENLOJgKoSHiRJBxgiiXwY0EkvyMthygT9MRcEETWaOelo9IhyHn7qTew2C+MOcWa8JxNGVJQw4dCRfLrmGyJRXe8HQmGaW33sq2+mavd+Kqtrqdq9n5raeuYcPYl5x6UHo3d593Lnwy+iqiozzEbmWAe2WPrLUIRa3QUhAv82kJKBWjTIqiWBkbKBeVYzSwMhln64kisuPhNBEBANRn0hbgYradwYJ7f+5lzu/ecChg7J59iZfU8dnDJ+DMsWPMCX32zni6+20tDcRigUQVU1HMOKcTlKGekoY2RFCZZOulpRVP709xeIxvQn5eh+6vJU5Kc/JSVppBdKEqqmERlk0gHOzrKwLBhil3c3HyxfzbwTjgJAMlq7Xc54+omz2Oau5vYHnuWpB67nsDGOPrdnMskcPe1wjp52+AH188mX3kumRgNURmPMMPdrV8Ik8sV00kXSSBcJHQTCQQ94DIk/Sf986hVi8aC2KPecSHrTVfM5bPRwrvvLv/l2h/eg9C2BF9/8kP+8+n7atdd9wVTro1/oLOkiKetniiSJyEHy/n0SDLM/TnTNnn28sfhDQM8kEOXuMxYMBolH7vwNFWXF/PKmv/POss8HvW+apvHCwmUda0UFoSPSBDzR6md1qP+GRV66pJdKJXl5NytQKgC/y80mqKnEBpF4n6rxRKufV33BtMnWt9t3ce4ZJyIbDIgGGS0aSc4yO0OWDcw5ejLrN+3ktcWf0tzqY8aksYhi/y2KBHZU7ubme59icXwFhyCKlEybS/7oSfj3VqLG9CD8mlAEkyAw1njgM+mgpiUNCWCblJOT+wcgL1cUuTQnizZVYTAUjAK85w/xQEs7O6JdPZXBUJjtOyuZc+wMDAYDgkFGjXT/GCeI3+Xdy/uffMnKtZvIiTu1+pPnXt/YyuPPv809jy5IekFFyUDZrJ9hL3FiMFuxl47AV+tBjefcfxOJ0qiqTDYbDzjHfLE/+d12S3m5ufcDcrnBwJlZNtqUvrlye8KWSJR7mtr5LBgmEhdvQZLIdR6GvdRJoF7f5rZ69z7Wb9jKsUdNwWqxIIoSanfTVHTiTzx2KhVlQ1i24ive++gLln26HpNRZqSjFKkXyVcUlRVrN/HIf97ir/96lS07vGlONzl/KEo0grWgGEEyIBnNZJWPxF9bhRIXiMqownfxwdXQxx/bJAos7HB8tQgjhztagJzhsoHXhhaxbwCTolZV5bm2AJ+mzAJF2UjuiMPJG3UEkkkPcrd6t7H/608g/oVNRiMnzT2Kc07/KaMdpWhRP53D9q1tfj74dB27qvaSnWVDVVXeWLIiub6oqCCHIycfRkV5McPLhlBRqkeudlXvZVdVLZXevWzc4qaprfc0ctFoxjHnFxjM8aB8OMDulYsJt3aEIkfIBu7Iz+qsrzMiomnM35fc1PozYeRwxzbgEKsosKy0mIZ+bOGkAf8LhHixPZBIHUYQRXJd4yk4ZEraoJRAq3cr+7/qurewKIqUFBcwrKSQirIhDCsdQmlxAf96/p20NZ2DDRHS1Kq5eDhDJx+H0aL7cJRImL1rlhBs6OhDuUHirwU52DMkH6Viv6JwZV3SV/+qlJ+bewbgjGowP8t6wINoZTTG/c3tLAuEicaLWouHUXbkyWQPG4UgZY60mHOLUJUYoUY9c/foY47h0cceo3xYOe1tfjzePXy1aQer121h2WfraW71IQCjZJkK2UC9ktkLKgAum4X2WMfYlC2JHJKbxU9GV3DOcdPIicb4rlFPgSs1SPw6J5sHivK5PCcLpyzzSTCEEg4iWPU4sdFiRZQMZFeMQY2GCDXXAdCmatQqSufQXBfUxFSWdzz9ywxA8qfbH1PI6eMIEdA0Xm4PsNQfSn45g9nKkImzsZf2vAwnEvQTaGlAs+ViLh5OqK6aL9eu5ev167jkkku46te/BnRTrqW5hflnnoHH4+Xewjzmxtf8+FSVL0JhVgbDLA8Ek15RDbAZZR771VmUOEopKi/GFM9H9DW2ctvv/8bqfQ2YBIGrcrK4MMuW1M0aGnOsZp5rk6mMRogFfPgRiIYCZBWVIRlkhkyYjWzNpn6zbrp+EYrQpKidbfE0NKUHg2qFkcMdD6Hv6MzfC/MYKffMugp8HAizoD1Ac0plthIHQycfj2TK7KfQNI2wr5VAayOxSPpgqYT8CA3VtNXvY8qUycybdxLHHDubwqJCBESmT55MrqrybllxRquhVVV50+fntXY/jSlpFlMLcxlWlE+WzUKW3cJbazaxNxzhSIuJW/Nyk/HOFjVGUFFJPDsvtAdY5AtiG3E4co4eaxUlieyiMoxWPXF0z+r38O+rAuCl4vweVcy7/hD/aUtmAV+QJukNqsLIHoyh9eEIL7QFqElZBiiIEkVHzCJ3ZObptqooBNuaCbY1oXZjGUlmG5SPxZ5ViNu9i7vvvhvD/fczYcJ4Dhk7lnA0SqlJN9MC8dQ+DV0yBcAsiFycbefCLDsL2v083dpOWNNY19DCuk77BYyUDfyzqCD5PqSq+JR038/QeNJ/6nJJVVFo2VeDNScfe34x5vxi/PuqsIlCrzq9s6Snkd4YU1MWnKfjdV+Ql9vTw1vG7HxKps3FlFPQ5X4lGibQ2kSovbXbSU9nGHKKILsAS2MtauNe1q//ivXr9dQHWRDQ0GhWYl10eQAVFLAKIpdk2znDbmVtKMz/tbSTJYrclJ9NsxLjjsZWKqMxvgyFEYFRRhk5w8iQH38COq9RBY1AayPRUJBwm26NDO1mzEpFk9ID6Q3dxESbFLUL4bkjxlF0xCwEKd25Hwn6CbQ2Egl0Nfv6BEHEVFgGBaVITfuI1NcQC/oxCgKa1vP2DNH4p/tiCpXRGO2qyiFGmbFGmdqoxi/sVp5u8/NISxsnWC1owKgMGVvFcf3clfR4O+EAoSY9S3l8H+KmzRlI35t416hklsj6lMdDMpopnvwT7KWpPm6NUHsrgdYmYj3MKg8IgoCxoARj/lCC367BKPT+E2oILPMHWewPsDEcIaRp1MRiNMQ3Rk5kJpxotXC23UpAU/Bl2jssri0S+wNkghrShXC6qXcPZIp6Cbq9nhYDsBuIAvLWbjZTyEqZeVmKStMIV1WFpt27UGMDn8lmhCAgZeXiC7TQi+okpqmMM4pMMecAGo+3+FgeDLE9EiWkaXwcN9ssokBjD/ORQDwB32DPvDmbEvKjqgo5oshoY89hvDZVZU/HGFgJYHB7PQGXw/kpMKdeUfFEYzg7xQNLDRLFksR+RcFf60UJh5JWiihKaOpBzku057G5pQ4Nes2XUSGZ7GoUwK9q3NiQnh69sN3P5rCBIlFkqEFiqCRSJBtILGjZHI4gihKSJX2JSwKxuD7vS/LR+nA09QldCh0pGO+gpwewLhztQjro+YrvB/SjD9pqdpDn6ojkyCYzkWDv+7z0FwZ7Lm2qhjsSJVvUA4294bNQhPdCUcrKyrDb7UyePIlZR82istLDSy++yNL9dV3KWCSJIQaJ+piCaM2GbnwrCdJn9SG4sS7dJfwOdJC+GH2Pc9aFIsy3d/VvTzHLvB/3c7R5t6WRbjBZDirposmCQTayJhRmntVET9o9omk80xZgWSBEWVkZj//rMazW5FpPXC4Xxx13LIsXv8sXa9awadNmio0y1lIHLQjs5o92BgAAE0JJREFUrq1BUSIIgTbUSAjRmD7v0FQVxd9CtigyrpdBNKppbAgn1Vg9sAbipLu9nhqXw7kBmOiOxmhW1S6OnAkmI9miQJuqEW5tJNxSjylX38RA7mZCNJgQs/J5t72Bk22mbjnfG1N4sMWXiLzT0NBAU1MzVqsVg8FAWUUFTU3NGESRs88+i/Hjx/Obq3/DCdf8CWmYPk6F/H6WPHo3/v27CVRtxe6amCbxir9FD1hbzb26dzdHYqn5Q++5vZ5kdDqBxaB/n3UZoiQScFRKLl+rd1vytWyydrl/sGHML8YbjbEj3HUA1IDPgmFubGilOhrj+LHjmF5aTjgc5u9/+xuqqpKbl4/7OzdTJ07kjTfeYLhzBAaDLqliQVGyLrPNxs9vuZc8x2hi/jbUSDCtrWj/VcvixIsupAN8Gco8sh9r7SC9vea7ZBRfNBgQpf4l4/QVhqw8zLKRFSlfpElRedsf5Nd1LfyjxYfNIHHWuZdRdtWtjL7semyiyNat23jjjTcJ+P0Mq6jg4ksu4ejZsxElCdEgYRRFBGv6gClKEmpMwVRYhthJoGJtTWT1QbUArOtYgxUCkhvLJEl3ez1fAzUAmyLRjLHS0bIh6a9QIiF8td4OUgaoYjSlt2RVAQpKWeQPcndTO5fVNXNZXTPPtwXYpyhMGlLMvD/+HfNMfVdWoaiYY6fpu2C8+sqr1NfXYZRl7rr3XsaOHQvoG7hlZQi/fbfuc9r21WAuSc+3UUIBlJCfGWaZ3uahnmiMho55z0duryc5u+yslt4FfTBa1U0gdnaKGzOwvyNVQTb1be/ETIi1NxHYtRGDsecfzlhYiiab+CocSZtaTyspY9ztf0fITXdHFJzzS4ZbLfj9fha/s5i21nQ/jN/nxyank64qCl+9vQBL2cgus+1ok+6GntWHlOmP09P5Fqe+6Uz6i4kXr7QHiGUYsI61dOiyYENyMjsw0n0tKOEgOUOHIfbgyxBlE1mHTMVacQj2URMRJJkRWdmMufHubgpIzDjjIgRg0aJF1NXVsXv3bn4xfz4bvv4av9+H1ZBO+heLXkHVwJjfed2rRqRpHxZJ6jVlul5R+aAjEO1D3++so1upb9xezxfEpb1eUZMmYiqKJYlD4rOwSHtLckfogagXTdX0mKRBJruo520DBcmAsaCEaEs9mhJlys/ORMgQmUrANPVopg8bTmtrG0vefY89NdV8s3Eje/fsoWX/fiwppLc3N1D5xcdYhnXd+CfW3oIaDTPdZOxVtbzSHkhdp/UPt9eTdkJhJqvnduKRq4W+IMEMuj01bThQr0u7KBkQDf0bTEVZ1tchAZKx90dXCQUIN+yhxGzCPLPHUzQBcP3iV0iiyFtvLaK4uJgt27fzs1NOYdfWrWTldEz1V770NHLukIwz0UiT7hecbe5ZymtiCp90qJZG4G+d7+lCutvr2Qy8DLrf4B1fsPMtzDKbkBKbMQyCihFlU8Y4aneI+ZpB06gNhdl417VEN6/vuf4yB+OHllBXV8ey/y0jGNCfTveuXVidYwB98Gyq+q7L4Al6Lny0pQGLKHJEL6rlpfZA6jTifrfX09alP92U/TO6E4y3/aGkdy6BLFFgcrzxVNJ7Gwi7g2gwIhr6TrqcXYhk1Xcv2tTYyKvPPMKWe28gtu2bbsuMOvYkABYuXEhTYwOKolBdV4/10AmE/D6+fON5zKVdB09AV2WqwpG9WC07IjHWdhggu9G3UuyCjKS7vZ5K4GnQV2S8nkHaE3sChFsbkzkhBnM/B1NJOiBJF40mskZPxFSkr+rQgK/r6njliYfYev9NKO6uu1qbps/GkZuLp9LD56tWs2PbNoySiM0xio+ffQxBkjMMnjoiccHKZLVowM5ojCX+EH9vSUvv+Gt3hw32pITvBi4BrB8EQpxisySd+6CvsEgg2FirZ0UdgLSmQ+h1L5auRUQs5aMwFpYS3l9NpHk/mqaxfl8tXz92H4fl5zNq+mxsx5+SHGiPGD8V72cf8vrrC1E1jQp7FjvXfEbDrq1kjZmSsRkl6CPmb8UqismARUjTWB+Ksj4c4etwtIsmiOMml8P5ndvrWdb5gx53q3M5nPcBfwA9tnh/QXZyKYdP1bhgvz4lLjh0GgVjp6KpKvXe7rdb7Q5KoA38bZRMn4sSi9JY/d0B16FGQoTraog01qblu2dLEuOHOyk/4VQMrkNZ/Kff0hoKceSRMwnt3c83tbUYsguwlI/KWK/f8y3Rljp+YjFxfpaVJYEQywIhfBnc2RUVFdTV1REK6QIuCEJY07Sp8XEyid5Iz0HfUmoE0GUbpcvrWmhUFLIrxjB06gkANFTtQO11dpmOmK8FIdhOyfSf9pv0BDQlRqRhL+H63ajR9KwDh9WKClTHB1KLwUAIkexDp3fR5ZqqEmnYQ3CPvg613CBRG1Po/M2KioqYf+45zD/3XMrKyohEItxz5128vGBB4paNbq8nbSVZjzae2+tpdTmcpwOfA/bPgmGcssTp8TyS4QaRRkUh4uuY6YmS3CvpajhIcI8bS/koRKMZJdAOka7jRr8giBgLhmLIKSDSWEukYQ9a/PH3BtLjvMFYDHPJCCKNtajhIKoSRYuEUCOhZNJoArtTMyAEgRkzZ3L+BRdwwtw5GFJMZaPRyF333sOQ4mIeefhhgAkuh3Oi2+tJHhXWq2Ht9no2uxzOi4E3AOG/bQEcBgMTTDLDZQNfh6NEfR2RGdFggF7SIUWTGTUSon3bWoyFZShBP0qgLUlOBzTUaAQtGkaNhFGj+p8WCevrSFVF/6/E0BQFTY0l8yP7ilBtZZ/vLSoq4syzz+bs+fMZ7uj5RPdfXvErnnnqKXw+H8A5QN9JB3B7PW/FdyH9kwr8raWdhwpycKQ4v5RICMloRjL0ZUAUMBWVE6jeTriuY+fnfes/Qo1FCbc16STHIgdM4sHCifNO5K8PPYTdnj5x2rNnDzt37CC/oIBDDz0UOe7LMZvNzPvZz1j42mugk35rosyBTCH/AhwBnO5TNe5rbuc3Kfo96mtFyjcj9TIrVUJ+Ik37iMZTGFLRXtO9LpckiaHFxQwbNozyigrKhw2jvLyc7OxsREnEYDAgivp/Ke6/aWhooHZvLfv21bJn9x6qvF5qa2tpbm5GkCRkSxYGiw2DxY5/f5Ue+5UkXl34OqIosmXLFv78xzsoKCjgxhtvSBIeDod57tlneebJpxg9Zgx/uesuRo/p6jo448wzEqQ7XA7ndLfXsxYOgHS316O5HM4LgS+Aw2piSlouTMTXgjm/OG2X/c4wWqy01mxHDQWQzFZE2YSaPKgbhgwZgnPECMrLyykrL9cJHqa/Li4uTpLZH0TCYWqqvGzYsJFbb7mV/DFTKBjbYSbu+XyJHnRXFEpKShlaMpTDjziCp594kt27d9Pc3MywWIxwOMzFF1xIKBjk/gcfYM7c7o8DmjJ1KgUFBTQ2NoIu7QdGOoDb6/G5HM7T0M/ByN8UjiKgTxCi8cG0J0lXFIWymSd1mblqSoxd7z3LbTffxMlnndVN6YEhoaRycrLjbaYHaoz2XBJR3pqaaoaWDEUURc497xf87cGHcLvdjD1sHH6/nyeeforCwkI0TaO5qRmzxYzF0nViKAgChx9+OJ9++inA2S6H80a316Md8KIdt9ezC32Ne7P+ZXS7PeLTXQxiDzpdiYRp3uOhtW4PgZZ6wr42YpEQgighmW14du060O70HfGxISdH390iNU9HgzRPZVVVVfL1rKOOBsD9nZtIJMyQIUPIy8vjuf/8h7N+fga/vfpqfn/9DTz26D9ZvWp1l+OGxh46NvGyHJgF/Tww0O31rHI5nNOBJaCNApLrhXoL2yWyd1MtaAFAMuCp9PSnO31Ch6TrpEeDPkLtrcQiIUL+NiLRDsmvruoIzow9dCxGoxH3rl1E48lYkiRx6eWXc+nll/fYpqqqHDp2bOqlGcCqfi9Pc3s938UraQY9YRT0FRjdbbTQHTT0JSeVKRI26IhLusFgwGq1Eg35aavfQ6C1ETUWTYuF1lR3kG4wGBg9ZjRV3ioikQPb3CEcCjHSNTLVjrfDAI/GdHs9TS6HczlwVufJxIFCNJqpqsl8cMhgIycnh5Zw+pxAlI0IkgFNiVHd6ccvKhqC1+MlGj9MJRqN8vaiRSx9bwk+nw9N0zhk7CFMmDiRyVOm4HTq7uFgIIAkSdhsVlpb2yB+Ws5ghPDrgJQpt0Z/snVFo5l2v5+mpiby8wd2/lEmpLo7srOzaWtoztgHJeijuqY67Xp2TjY+nw+/34+qqsiyzNnz53P2/Plp9ykxhUg0ghJTkAwS7W36pNFiSZJeDYNDej2AEk0cRtK/ShKZVJ7KyoNCeiqysuwI9U1drgtxI6C5qRmfz5e0y21WfbFXY2MjtXt2I0kSoigiiiJC/H/qX1hTifmjxGIxotEozc3JH/grGBzS24HktLy7/L/ekCTd42HylMxu1oFAS3n6bDY7QoaFCqmWl6eyktLSEvztvqTXsrGxkdLSAzsVc/PmzYlTzhRgIwwO6UlHvRqNIIj9q1IwyMiyjPcgWTBCyuBus9lQVaVLFEhIiQd8vW4d1qP1nTqstoSk60+HpmlEIhGCwSCRcERfhiMIFBYWpi2d1zSNt95MJgIsTuS+DCrpSjSMJvR/QJUtNjyeg0N6Khl2uw0tQz69kCLpe2v1QHRVVRU7d+inuD/yj0f4x8P/IBwOd0nXLiktYcL48Zxy6imMHKlvrbvgpQWsW7cucUty4+jBID15hEvdhhXYMqQv9BWKKFNZeXAmSEIK6Ta7HSXD0pZU0he9tYiFry+kra0jrpw4FzuBktISTjv1VI46+iiKivR8yLa2NjZu3MiCBS+z6ZtNiVvfcXs9ybM4B4P0ZKgoUFdDoK4GOacQc4mz26T6bmEwUuWtQlXVQdnhIhVpkm6zEYt2zddMDY43NTVhMBh8BoPh/Vgstgj9e/rifycA/63dW8vTTz/DO+8s1mSjLNTt74gapeB54KrUC4NBugf4BDgucSHa2kC0tQE5t0gn39y3DY1Fk5lgJMLevXspLy/vvcABIPWUGavNiqIoqOGA7ssPxf8CaTss1cVisTK315NpDcKLLofTDExXFKWstra2FP2IUJMgCG5N03YAO4F1bq/n3c6FB0y62+tRXQ7nHPQjxG6A5CoSoi31RFsaMOYVYRrqRDL3nFKdsGC8Hs+gk56qXhKLBNq2ru2pyJvdEA6A2+t5mnjGxIFiUJ5ht9ejuL2eP6PvknQV8G3HpxqR5jrat63Ft+sbPWrfzR6+Hbb64A+mgiAk94WxWqydP/TRsc91HTDD7fUM/Hy3bjCoitPt9bS7vZ4n0U8bOBU9tppErK2JgHcrbZtXaYHq7URb6lHDgeSMSjTq7tFt23o/jb0/SOh1S3x/gXnz5n224OWX9v/vf+/bhxQPSexyvCcRbDhYOCiZ/PEjIt8F3o0f33Mr8Q3xATRVESKNtUQa4+uGBRHJbE2qn89XD/4+XXozIigKlrikjxjpNBUWFhYDHDJmTLBOX/w1SBHy7jG4JkIGuL2eFW6v5yRgAvAKmbar11SUoI9IfEuP3TU17D4Izi8xfkiKLa7T/b5AUs9NmjwpEYXI61JwsPtxsBtIwO31fOP2es5DP0T2ZPQ8v51AG3TdNuxgSHsiqpVQL8GgP/n9J06YmNjGeozL4Tyo50cc3IVCGRCfCi+J/yUR31v8CPQYLKtXrWL+uecMatuyLBNEj9QLgkAoHEl+/6ElQ0sFQWjTNC0b/alc3W1FA8T3Jum9we31BOMDWCXAms8/H/QTYuSU9UUWi4VQKJTmfjEajYkUhemD2nAn/GhIT8ES0GeEO3bsGNSK5ZQ4qD3LTiQcSUtdsNvtiaypGYPacCf8GEl/L/Hi81WrBrViOWVRV0F+PuFIJC2KXlBQkLBcMu9iP0j4MZL+Gbp/Y9AHU0MK6Xl5+cSi6aSXlAxNJCwe1CXgPzrS3V5PGPgI4Msv1xIbxC1NRFFEimcr5BfkE4lEjQBNTc31C19/4/P1679KHI50UI8D/t6tlz7iPeD0gD/Axg0bmTJ18CJJsiyjKDHy8/P54P0Phv507okhoCj+l8CCbooPCn50kh7HYuI7jHy+enAtt4QFk5+XRywWk0hXJWHgYfS8zYOGHyXpbq+nHlgO8PnqwR1ME3o9vyAt+H0f8BMg1+313Oj2eg6qK+DHql4AXgV+unHDRoKBABbrwHbaUBSF1uZmWlv0yHxeXtps/5H4D/294Ecp6XEsAsKxWIxnnn6mSwJQXxGNRmmsr6faU0lzUyNq3K3cKc0j82ZdBwk9rjn6oeFyON8m5bSx/Px8Jk6exKRJk5k4aSKlZWUUFBR0yZiNxWL42tvxtbcRjofPWlpa2LFjB9u3bWfHjp3s2LEjsUoCYLzb69nE94QfO+nnoKuZHmE2m8nLyyM3NxebzUYoFCIYDCb/J/66wVpgZtwd/b3gx066FT0MeBQwhW73R+0XWoE3gRvcXk/3p30fBPyoSU+Fy+E0AdPQf4ARQAFQIIpikaqquegH2AbQM846//k6vd8MLHd7PYN3bNkB4P8BLPQmdKGwlXsAAAAASUVORK5CYII=;fontStyle=0;fontSize=24;" parent="1" vertex="1">
          <mxGeometry x="229.5" y="350.5" width="52" height="72" as="geometry" />
        </mxCell>
        <mxCell id="kKCmZU7g9CsREEnNZsZf-7" value="Jenkins" style="text;html=1;align=center;verticalAlign=middle;whiteSpace=wrap;rounded=0;fontSize=24;fontStyle=0" parent="1" vertex="1">
          <mxGeometry x="220.5" y="425.5" width="70" height="40" as="geometry" />
        </mxCell>
        <mxCell id="4X8OJqOi4j79PQFWo-uC-11" value="" style="rounded=1;whiteSpace=wrap;html=1;fontSize=22;fontStyle=0" parent="1" vertex="1">
          <mxGeometry x="313" y="348" width="467" height="120" as="geometry" />
        </mxCell>
        <mxCell id="4X8OJqOi4j79PQFWo-uC-12" value="Build" style="rounded=0;whiteSpace=wrap;html=1;fontSize=22;fillColor=#f5f5f5;fontColor=#333333;strokeColor=#666666;fontStyle=0" parent="1" vertex="1">
          <mxGeometry x="327" y="378" width="90" height="60" as="geometry" />
        </mxCell>
        <mxCell id="4X8OJqOi4j79PQFWo-uC-13" value="Unit Test" style="rounded=0;whiteSpace=wrap;html=1;fontSize=22;fillColor=#f5f5f5;fontColor=#333333;strokeColor=#666666;fontStyle=0" parent="1" vertex="1">
          <mxGeometry x="426" y="378" width="90" height="60" as="geometry" />
        </mxCell>
        <mxCell id="4X8OJqOi4j79PQFWo-uC-14" value="Component &lt;br style=&quot;font-size: 22px;&quot;&gt;Test" style="rounded=0;whiteSpace=wrap;html=1;fontSize=22;fillColor=#f5f5f5;fontColor=#333333;strokeColor=#666666;fontStyle=0" parent="1" vertex="1">
          <mxGeometry x="525" y="378" width="135" height="60" as="geometry" />
        </mxCell>
        <mxCell id="4X8OJqOi4j79PQFWo-uC-16" value="Deploy" style="rounded=0;whiteSpace=wrap;html=1;fontSize=22;fillColor=#f5f5f5;fontColor=#333333;strokeColor=#666666;fontStyle=0" parent="1" vertex="1">
          <mxGeometry x="668" y="378" width="90" height="60" as="geometry" />
        </mxCell>
        <mxCell id="4X8OJqOi4j79PQFWo-uC-19" value="Integration&lt;br style=&quot;font-size: 21px;&quot;&gt;Node" style="outlineConnect=0;dashed=0;verticalLabelPosition=bottom;verticalAlign=top;align=center;html=1;shape=mxgraph.aws3.traditional_server;fillColor=#7D7C7C;gradientColor=none;fontSize=21;fontStyle=0" parent="1" vertex="1">
          <mxGeometry x="983.75" y="391.5" width="46.5" height="63" as="geometry" />
        </mxCell>
        <mxCell id="4X8OJqOi4j79PQFWo-uC-36" value="" style="edgeStyle=elbowEdgeStyle;elbow=horizontal;endArrow=classic;html=1;curved=0;rounded=0;endSize=8;startSize=8;entryX=-0.006;entryY=0.702;entryDx=0;entryDy=0;entryPerimeter=0;strokeWidth=2;fontStyle=0" parent="1" target="4X8OJqOi4j79PQFWo-uC-11" edge="1">
          <mxGeometry width="50" height="50" relative="1" as="geometry">
            <mxPoint x="120" y="380" as="sourcePoint" />
            <mxPoint x="505" y="268" as="targetPoint" />
            <Array as="points">
              <mxPoint x="190" y="410" />
            </Array>
          </mxGeometry>
        </mxCell>
        <mxCell id="4X8OJqOi4j79PQFWo-uC-39" value="" style="edgeStyle=elbowEdgeStyle;elbow=horizontal;endArrow=classic;html=1;curved=0;rounded=0;endSize=8;startSize=8;entryX=0.086;entryY=0.671;entryDx=0;entryDy=0;entryPerimeter=0;exitX=1;exitY=0.25;exitDx=0;exitDy=0;strokeWidth=2;fontStyle=0" parent="1" source="4X8OJqOi4j79PQFWo-uC-16" target="bC7OHCeX101TMUWNberd-3" edge="1">
          <mxGeometry width="50" height="50" relative="1" as="geometry">
            <mxPoint x="585" y="328" as="sourcePoint" />
            <mxPoint x="635" y="278" as="targetPoint" />
            <Array as="points">
              <mxPoint x="840" y="338" />
            </Array>
          </mxGeometry>
        </mxCell>
        <mxCell id="4X8OJqOi4j79PQFWo-uC-41" value="" style="edgeStyle=elbowEdgeStyle;elbow=horizontal;endArrow=classic;html=1;curved=0;rounded=0;endSize=8;startSize=8;exitX=1;exitY=0.75;exitDx=0;exitDy=0;strokeWidth=2;entryX=0;entryY=0.5;entryDx=0;entryDy=0;entryPerimeter=0;fontStyle=0" parent="1" source="4X8OJqOi4j79PQFWo-uC-16" target="4X8OJqOi4j79PQFWo-uC-19" edge="1">
          <mxGeometry width="50" height="50" relative="1" as="geometry">
            <mxPoint x="585" y="328" as="sourcePoint" />
            <mxPoint x="635" y="278" as="targetPoint" />
            <Array as="points">
              <mxPoint x="865" y="438" />
            </Array>
          </mxGeometry>
        </mxCell>
      </root>
    </mxGraphModel>
  </diagram>
</mxfile>
